<mxfile host="app.diagrams.net" modified="2023-07-04T10:30:11.852Z" agent="Mozilla/5.0 (Windows NT 10.0; Win64; x64) AppleWebKit/537.36 (KHTML, like Gecko) Chrome/114.0.0.0 Safari/537.36" etag="p0ek8tEQn0P3KIFJrL-I" version="21.5.2" type="github">
  <diagram id="UDz6CcKp5vvzcTjrNr50" name="Page-1">
    <mxGraphModel dx="1000" dy="1684" grid="1" gridSize="10" guides="1" tooltips="1" connect="1" arrows="1" fold="1" page="1" pageScale="1" pageWidth="827" pageHeight="1169" math="0" shadow="0">
      <root>
        <mxCell id="0" />
        <mxCell id="1" parent="0" />
        <mxCell id="F3K8eyjBg7AJ-sS8ZIL0-3" style="edgeStyle=orthogonalEdgeStyle;rounded=0;orthogonalLoop=1;jettySize=auto;html=1;exitX=0.5;exitY=1;exitDx=0;exitDy=0;entryX=0.453;entryY=-0.04;entryDx=0;entryDy=0;entryPerimeter=0;" parent="1" source="F3K8eyjBg7AJ-sS8ZIL0-1" target="ZPh97H9B8s04hcJ3Fn8W-2" edge="1">
          <mxGeometry relative="1" as="geometry">
            <mxPoint x="417" y="230.00000000000023" as="targetPoint" />
          </mxGeometry>
        </mxCell>
        <mxCell id="hTVvLyft6rMGYpKhxL-7-19" value="" style="edgeStyle=orthogonalEdgeStyle;rounded=0;orthogonalLoop=1;jettySize=auto;html=1;" edge="1" parent="1" source="F3K8eyjBg7AJ-sS8ZIL0-1" target="hTVvLyft6rMGYpKhxL-7-18">
          <mxGeometry relative="1" as="geometry" />
        </mxCell>
        <mxCell id="hTVvLyft6rMGYpKhxL-7-21" style="edgeStyle=orthogonalEdgeStyle;rounded=0;orthogonalLoop=1;jettySize=auto;html=1;exitX=0.5;exitY=0;exitDx=0;exitDy=0;entryX=0;entryY=0.5;entryDx=0;entryDy=0;" edge="1" parent="1" source="F3K8eyjBg7AJ-sS8ZIL0-1" target="hTVvLyft6rMGYpKhxL-7-20">
          <mxGeometry relative="1" as="geometry" />
        </mxCell>
        <mxCell id="F3K8eyjBg7AJ-sS8ZIL0-1" value="Platform" style="rounded=1;whiteSpace=wrap;html=1;" parent="1" vertex="1">
          <mxGeometry x="357" y="64" width="120" height="60" as="geometry" />
        </mxCell>
        <mxCell id="ZPh97H9B8s04hcJ3Fn8W-10" value="" style="edgeStyle=orthogonalEdgeStyle;rounded=0;orthogonalLoop=1;jettySize=auto;html=1;" parent="1" source="ZPh97H9B8s04hcJ3Fn8W-2" edge="1">
          <mxGeometry relative="1" as="geometry">
            <mxPoint x="640" y="270" as="targetPoint" />
          </mxGeometry>
        </mxCell>
        <mxCell id="ZPh97H9B8s04hcJ3Fn8W-2" value="&lt;b&gt;test&lt;/b&gt;(processing, algo, row data)" style="whiteSpace=wrap;html=1;rounded=1;" parent="1" vertex="1">
          <mxGeometry x="331" y="240" width="190" height="60" as="geometry" />
        </mxCell>
        <mxCell id="hTVvLyft6rMGYpKhxL-7-52" style="edgeStyle=orthogonalEdgeStyle;rounded=0;orthogonalLoop=1;jettySize=auto;html=1;exitX=1;exitY=0.5;exitDx=0;exitDy=0;entryX=0;entryY=0.5;entryDx=0;entryDy=0;" edge="1" parent="1" source="ZPh97H9B8s04hcJ3Fn8W-4" target="F3K8eyjBg7AJ-sS8ZIL0-1">
          <mxGeometry relative="1" as="geometry" />
        </mxCell>
        <mxCell id="ZPh97H9B8s04hcJ3Fn8W-4" value="row data" style="ellipse;whiteSpace=wrap;html=1;" parent="1" vertex="1">
          <mxGeometry x="32.25" y="-20" width="120" height="80" as="geometry" />
        </mxCell>
        <mxCell id="ZPh97H9B8s04hcJ3Fn8W-11" value="&lt;b&gt;Benchmark:&lt;/b&gt;" style="text;html=1;strokeColor=none;fillColor=none;align=center;verticalAlign=middle;whiteSpace=wrap;rounded=0;" parent="1" vertex="1">
          <mxGeometry x="770" y="326" width="100" height="30" as="geometry" />
        </mxCell>
        <mxCell id="ZPh97H9B8s04hcJ3Fn8W-12" value="" style="verticalLabelPosition=bottom;verticalAlign=top;html=1;shape=mxgraph.basic.frame;dx=10;" parent="1" vertex="1">
          <mxGeometry x="865" y="310" width="420" height="60" as="geometry" />
        </mxCell>
        <mxCell id="ZPh97H9B8s04hcJ3Fn8W-13" value="&amp;nbsp; &amp;nbsp;Compression Rate, compression time, decompression time, loss rate..." style="text;html=1;align=center;verticalAlign=middle;resizable=0;points=[];autosize=1;strokeColor=none;fillColor=none;" parent="1" vertex="1">
          <mxGeometry x="855" y="326" width="410" height="30" as="geometry" />
        </mxCell>
        <mxCell id="ZPh97H9B8s04hcJ3Fn8W-14" value="" style="endArrow=none;dashed=1;html=1;rounded=0;entryX=1;entryY=0.5;entryDx=0;entryDy=0;" parent="1" edge="1">
          <mxGeometry width="50" height="50" relative="1" as="geometry">
            <mxPoint x="890" y="270" as="sourcePoint" />
            <mxPoint x="770" y="270" as="targetPoint" />
          </mxGeometry>
        </mxCell>
        <mxCell id="ZPh97H9B8s04hcJ3Fn8W-16" value="use benckmarks to make plots, logs&amp;nbsp;&amp;nbsp;" style="rounded=1;whiteSpace=wrap;html=1;" parent="1" vertex="1">
          <mxGeometry x="880" y="240" width="120" height="60" as="geometry" />
        </mxCell>
        <mxCell id="ZPh97H9B8s04hcJ3Fn8W-21" value="" style="edgeStyle=orthogonalEdgeStyle;rounded=0;orthogonalLoop=1;jettySize=auto;html=1;entryX=0.5;entryY=0;entryDx=0;entryDy=0;" parent="1" source="ZPh97H9B8s04hcJ3Fn8W-19" target="hTVvLyft6rMGYpKhxL-7-10" edge="1">
          <mxGeometry relative="1" as="geometry">
            <mxPoint x="820" y="570.0000000000001" as="targetPoint" />
          </mxGeometry>
        </mxCell>
        <mxCell id="ZPh97H9B8s04hcJ3Fn8W-19" value="algo.compression(data)" style="rounded=1;whiteSpace=wrap;html=1;" parent="1" vertex="1">
          <mxGeometry x="450" y="520" width="220" height="60" as="geometry" />
        </mxCell>
        <mxCell id="hTVvLyft6rMGYpKhxL-7-7" value="" style="edgeStyle=orthogonalEdgeStyle;rounded=0;orthogonalLoop=1;jettySize=auto;html=1;" edge="1" parent="1" source="ZPh97H9B8s04hcJ3Fn8W-22" target="hTVvLyft6rMGYpKhxL-7-5">
          <mxGeometry relative="1" as="geometry" />
        </mxCell>
        <mxCell id="ZPh97H9B8s04hcJ3Fn8W-22" value="algo.decompression(compressed_data)" style="whiteSpace=wrap;html=1;rounded=1;" parent="1" vertex="1">
          <mxGeometry x="470" y="710" width="220" height="60" as="geometry" />
        </mxCell>
        <mxCell id="hTVvLyft6rMGYpKhxL-7-4" value="" style="edgeStyle=orthogonalEdgeStyle;rounded=0;orthogonalLoop=1;jettySize=auto;html=1;" edge="1" parent="1" source="hTVvLyft6rMGYpKhxL-7-1" target="hTVvLyft6rMGYpKhxL-7-2">
          <mxGeometry relative="1" as="geometry" />
        </mxCell>
        <mxCell id="hTVvLyft6rMGYpKhxL-7-1" value="data" style="ellipse;whiteSpace=wrap;html=1;" vertex="1" parent="1">
          <mxGeometry x="90" y="520" width="100" height="60" as="geometry" />
        </mxCell>
        <mxCell id="hTVvLyft6rMGYpKhxL-7-3" value="" style="edgeStyle=orthogonalEdgeStyle;rounded=0;orthogonalLoop=1;jettySize=auto;html=1;" edge="1" parent="1" source="hTVvLyft6rMGYpKhxL-7-2" target="ZPh97H9B8s04hcJ3Fn8W-19">
          <mxGeometry relative="1" as="geometry" />
        </mxCell>
        <mxCell id="hTVvLyft6rMGYpKhxL-7-2" value="preprocessing" style="rounded=1;whiteSpace=wrap;html=1;" vertex="1" parent="1">
          <mxGeometry x="277" y="520" width="113" height="60" as="geometry" />
        </mxCell>
        <mxCell id="hTVvLyft6rMGYpKhxL-7-6" value="" style="edgeStyle=orthogonalEdgeStyle;rounded=0;orthogonalLoop=1;jettySize=auto;html=1;" edge="1" parent="1" source="hTVvLyft6rMGYpKhxL-7-5">
          <mxGeometry relative="1" as="geometry">
            <mxPoint x="198.5" y="740.0000000000001" as="targetPoint" />
          </mxGeometry>
        </mxCell>
        <mxCell id="hTVvLyft6rMGYpKhxL-7-5" value="postprocessing" style="rounded=1;whiteSpace=wrap;html=1;" vertex="1" parent="1">
          <mxGeometry x="285.5" y="710" width="120" height="60" as="geometry" />
        </mxCell>
        <mxCell id="hTVvLyft6rMGYpKhxL-7-9" value="decompressed_data" style="ellipse;whiteSpace=wrap;html=1;" vertex="1" parent="1">
          <mxGeometry x="68.5" y="710" width="130" height="60" as="geometry" />
        </mxCell>
        <mxCell id="hTVvLyft6rMGYpKhxL-7-11" style="edgeStyle=orthogonalEdgeStyle;rounded=0;orthogonalLoop=1;jettySize=auto;html=1;exitX=0.5;exitY=1;exitDx=0;exitDy=0;entryX=1;entryY=0.5;entryDx=0;entryDy=0;" edge="1" parent="1" source="hTVvLyft6rMGYpKhxL-7-10" target="ZPh97H9B8s04hcJ3Fn8W-22">
          <mxGeometry relative="1" as="geometry">
            <mxPoint x="808.5" y="720" as="sourcePoint" />
          </mxGeometry>
        </mxCell>
        <mxCell id="hTVvLyft6rMGYpKhxL-7-10" value="compressed data" style="ellipse;whiteSpace=wrap;html=1;" vertex="1" parent="1">
          <mxGeometry x="765" y="540" width="100" height="60" as="geometry" />
        </mxCell>
        <mxCell id="hTVvLyft6rMGYpKhxL-7-13" value="&lt;b&gt;&lt;font style=&quot;font-size: 20px;&quot;&gt;Test(processing, algo, data)&lt;/font&gt;&lt;/b&gt;" style="text;html=1;strokeColor=none;fillColor=none;align=center;verticalAlign=middle;whiteSpace=wrap;rounded=0;" vertex="1" parent="1">
          <mxGeometry x="277" y="420" width="313" height="70" as="geometry" />
        </mxCell>
        <mxCell id="hTVvLyft6rMGYpKhxL-7-14" value="" style="endArrow=none;dashed=1;html=1;dashPattern=1 3;strokeWidth=2;rounded=0;entryX=0.5;entryY=1;entryDx=0;entryDy=0;exitX=0.5;exitY=0;exitDx=0;exitDy=0;" edge="1" parent="1" source="hTVvLyft6rMGYpKhxL-7-15" target="hTVvLyft6rMGYpKhxL-7-58">
          <mxGeometry width="50" height="50" relative="1" as="geometry">
            <mxPoint x="140" y="750" as="sourcePoint" />
            <mxPoint x="180" y="700" as="targetPoint" />
          </mxGeometry>
        </mxCell>
        <mxCell id="hTVvLyft6rMGYpKhxL-7-15" value="get benckmarks" style="rounded=1;whiteSpace=wrap;html=1;" vertex="1" parent="1">
          <mxGeometry x="410" y="850" width="120" height="60" as="geometry" />
        </mxCell>
        <mxCell id="hTVvLyft6rMGYpKhxL-7-17" style="edgeStyle=orthogonalEdgeStyle;rounded=0;orthogonalLoop=1;jettySize=auto;html=1;entryX=0;entryY=0.5;entryDx=0;entryDy=0;" edge="1" parent="1" source="hTVvLyft6rMGYpKhxL-7-16" target="F3K8eyjBg7AJ-sS8ZIL0-1">
          <mxGeometry relative="1" as="geometry" />
        </mxCell>
        <mxCell id="hTVvLyft6rMGYpKhxL-7-16" value="Congif platform" style="rounded=0;whiteSpace=wrap;html=1;" vertex="1" parent="1">
          <mxGeometry x="52.25" y="134" width="100" height="60" as="geometry" />
        </mxCell>
        <mxCell id="hTVvLyft6rMGYpKhxL-7-48" value="" style="edgeStyle=orthogonalEdgeStyle;rounded=0;orthogonalLoop=1;jettySize=auto;html=1;" edge="1" parent="1" source="hTVvLyft6rMGYpKhxL-7-18" target="hTVvLyft6rMGYpKhxL-7-47">
          <mxGeometry relative="1" as="geometry" />
        </mxCell>
        <mxCell id="hTVvLyft6rMGYpKhxL-7-18" value="&lt;b&gt;compression&lt;/b&gt;(processing, algo, row data)" style="rounded=1;whiteSpace=wrap;html=1;" vertex="1" parent="1">
          <mxGeometry x="600" y="64" width="270" height="60" as="geometry" />
        </mxCell>
        <mxCell id="hTVvLyft6rMGYpKhxL-7-46" value="" style="edgeStyle=orthogonalEdgeStyle;rounded=0;orthogonalLoop=1;jettySize=auto;html=1;" edge="1" parent="1" source="hTVvLyft6rMGYpKhxL-7-20" target="hTVvLyft6rMGYpKhxL-7-45">
          <mxGeometry relative="1" as="geometry" />
        </mxCell>
        <mxCell id="hTVvLyft6rMGYpKhxL-7-20" value="&lt;b style=&quot;border-color: var(--border-color);&quot;&gt;decompression&lt;/b&gt;(processing, algo, compressed_data)" style="rounded=1;whiteSpace=wrap;html=1;" vertex="1" parent="1">
          <mxGeometry x="600" y="-80" width="300" height="60" as="geometry" />
        </mxCell>
        <mxCell id="hTVvLyft6rMGYpKhxL-7-22" value="" style="edgeStyle=orthogonalEdgeStyle;rounded=0;orthogonalLoop=1;jettySize=auto;html=1;entryX=0.5;entryY=0;entryDx=0;entryDy=0;" edge="1" parent="1" source="hTVvLyft6rMGYpKhxL-7-23" target="hTVvLyft6rMGYpKhxL-7-28">
          <mxGeometry relative="1" as="geometry">
            <mxPoint x="782.25" y="1240" as="targetPoint" />
          </mxGeometry>
        </mxCell>
        <mxCell id="hTVvLyft6rMGYpKhxL-7-23" value="algo.compression(data)" style="rounded=1;whiteSpace=wrap;html=1;" vertex="1" parent="1">
          <mxGeometry x="412.25" y="1190" width="220" height="60" as="geometry" />
        </mxCell>
        <mxCell id="hTVvLyft6rMGYpKhxL-7-24" value="" style="edgeStyle=orthogonalEdgeStyle;rounded=0;orthogonalLoop=1;jettySize=auto;html=1;" edge="1" parent="1" source="hTVvLyft6rMGYpKhxL-7-25" target="hTVvLyft6rMGYpKhxL-7-27">
          <mxGeometry relative="1" as="geometry" />
        </mxCell>
        <mxCell id="hTVvLyft6rMGYpKhxL-7-25" value="row data" style="ellipse;whiteSpace=wrap;html=1;" vertex="1" parent="1">
          <mxGeometry x="52.25" y="1190" width="100" height="60" as="geometry" />
        </mxCell>
        <mxCell id="hTVvLyft6rMGYpKhxL-7-26" value="" style="edgeStyle=orthogonalEdgeStyle;rounded=0;orthogonalLoop=1;jettySize=auto;html=1;" edge="1" parent="1" source="hTVvLyft6rMGYpKhxL-7-27" target="hTVvLyft6rMGYpKhxL-7-23">
          <mxGeometry relative="1" as="geometry" />
        </mxCell>
        <mxCell id="hTVvLyft6rMGYpKhxL-7-27" value="preprocessing" style="rounded=1;whiteSpace=wrap;html=1;" vertex="1" parent="1">
          <mxGeometry x="239.25" y="1190" width="113" height="60" as="geometry" />
        </mxCell>
        <mxCell id="hTVvLyft6rMGYpKhxL-7-28" value="compressed data" style="ellipse;whiteSpace=wrap;html=1;" vertex="1" parent="1">
          <mxGeometry x="712.25" y="1240" width="100" height="60" as="geometry" />
        </mxCell>
        <mxCell id="hTVvLyft6rMGYpKhxL-7-29" value="&lt;b&gt;&lt;font style=&quot;font-size: 20px;&quot;&gt;Compression(processing, algo, row data, log=True/False)&lt;/font&gt;&lt;/b&gt;" style="text;html=1;strokeColor=none;fillColor=none;align=center;verticalAlign=middle;whiteSpace=wrap;rounded=0;" vertex="1" parent="1">
          <mxGeometry x="139.25" y="1090" width="583" height="70" as="geometry" />
        </mxCell>
        <mxCell id="hTVvLyft6rMGYpKhxL-7-30" value="" style="edgeStyle=orthogonalEdgeStyle;rounded=0;orthogonalLoop=1;jettySize=auto;html=1;" edge="1" parent="1" source="hTVvLyft6rMGYpKhxL-7-31" target="hTVvLyft6rMGYpKhxL-7-33">
          <mxGeometry relative="1" as="geometry" />
        </mxCell>
        <mxCell id="hTVvLyft6rMGYpKhxL-7-31" value="algo.decompression(compressed_data)" style="whiteSpace=wrap;html=1;rounded=1;" vertex="1" parent="1">
          <mxGeometry x="422.25" y="1640" width="220" height="60" as="geometry" />
        </mxCell>
        <mxCell id="hTVvLyft6rMGYpKhxL-7-32" value="" style="edgeStyle=orthogonalEdgeStyle;rounded=0;orthogonalLoop=1;jettySize=auto;html=1;" edge="1" parent="1" source="hTVvLyft6rMGYpKhxL-7-33">
          <mxGeometry relative="1" as="geometry">
            <mxPoint x="162.25" y="1670" as="targetPoint" />
          </mxGeometry>
        </mxCell>
        <mxCell id="hTVvLyft6rMGYpKhxL-7-33" value="postprocessing" style="rounded=1;whiteSpace=wrap;html=1;" vertex="1" parent="1">
          <mxGeometry x="249.25" y="1640" width="120" height="60" as="geometry" />
        </mxCell>
        <mxCell id="hTVvLyft6rMGYpKhxL-7-34" value="data" style="ellipse;whiteSpace=wrap;html=1;" vertex="1" parent="1">
          <mxGeometry x="62.25" y="1640" width="100" height="60" as="geometry" />
        </mxCell>
        <mxCell id="hTVvLyft6rMGYpKhxL-7-35" style="edgeStyle=orthogonalEdgeStyle;rounded=0;orthogonalLoop=1;jettySize=auto;html=1;exitX=0.5;exitY=1;exitDx=0;exitDy=0;entryX=1;entryY=0.5;entryDx=0;entryDy=0;" edge="1" parent="1" source="hTVvLyft6rMGYpKhxL-7-36" target="hTVvLyft6rMGYpKhxL-7-31">
          <mxGeometry relative="1" as="geometry" />
        </mxCell>
        <mxCell id="hTVvLyft6rMGYpKhxL-7-36" value="compressed data" style="ellipse;whiteSpace=wrap;html=1;" vertex="1" parent="1">
          <mxGeometry x="722.25" y="1590" width="100" height="60" as="geometry" />
        </mxCell>
        <mxCell id="hTVvLyft6rMGYpKhxL-7-44" value="&lt;b&gt;&lt;font style=&quot;font-size: 20px;&quot;&gt;Decompression(processing, algo, compressed_data,&lt;/font&gt;&lt;/b&gt;&lt;b style=&quot;border-color: var(--border-color);&quot;&gt;&lt;font style=&quot;border-color: var(--border-color); font-size: 20px;&quot;&gt;log=True/False&lt;/font&gt;&lt;/b&gt;&lt;b&gt;&lt;font style=&quot;font-size: 20px;&quot;&gt;)&lt;/font&gt;&lt;/b&gt;" style="text;html=1;strokeColor=none;fillColor=none;align=center;verticalAlign=middle;whiteSpace=wrap;rounded=0;" vertex="1" parent="1">
          <mxGeometry x="52.25" y="1490" width="668" height="70" as="geometry" />
        </mxCell>
        <mxCell id="hTVvLyft6rMGYpKhxL-7-45" value="data, benckmarks" style="ellipse;whiteSpace=wrap;html=1;rounded=1;" vertex="1" parent="1">
          <mxGeometry x="1070" y="-90" width="150" height="80" as="geometry" />
        </mxCell>
        <mxCell id="hTVvLyft6rMGYpKhxL-7-47" value="compressed_data,&lt;br&gt;benchmarks" style="ellipse;whiteSpace=wrap;html=1;rounded=1;" vertex="1" parent="1">
          <mxGeometry x="1080" y="54" width="140" height="80" as="geometry" />
        </mxCell>
        <mxCell id="hTVvLyft6rMGYpKhxL-7-53" value="" style="endArrow=none;dashed=1;html=1;dashPattern=1 3;strokeWidth=2;rounded=0;entryX=0.5;entryY=1;entryDx=0;entryDy=0;exitX=0.5;exitY=0;exitDx=0;exitDy=0;" edge="1" parent="1" source="hTVvLyft6rMGYpKhxL-7-54">
          <mxGeometry width="50" height="50" relative="1" as="geometry">
            <mxPoint x="759.25" y="1370" as="sourcePoint" />
            <mxPoint x="759.25" y="1300" as="targetPoint" />
          </mxGeometry>
        </mxCell>
        <mxCell id="hTVvLyft6rMGYpKhxL-7-54" value="get benckmarks" style="rounded=1;whiteSpace=wrap;html=1;" vertex="1" parent="1">
          <mxGeometry x="699.25" y="1338" width="120" height="60" as="geometry" />
        </mxCell>
        <mxCell id="hTVvLyft6rMGYpKhxL-7-55" value="" style="endArrow=none;dashed=1;html=1;dashPattern=1 3;strokeWidth=2;rounded=0;entryX=0.5;entryY=1;entryDx=0;entryDy=0;exitX=0.5;exitY=0;exitDx=0;exitDy=0;" edge="1" parent="1" source="hTVvLyft6rMGYpKhxL-7-56">
          <mxGeometry width="50" height="50" relative="1" as="geometry">
            <mxPoint x="112.25" y="1770" as="sourcePoint" />
            <mxPoint x="112.25" y="1700" as="targetPoint" />
          </mxGeometry>
        </mxCell>
        <mxCell id="hTVvLyft6rMGYpKhxL-7-56" value="get benckmarks" style="rounded=1;whiteSpace=wrap;html=1;" vertex="1" parent="1">
          <mxGeometry x="52.25" y="1750" width="120" height="60" as="geometry" />
        </mxCell>
        <mxCell id="hTVvLyft6rMGYpKhxL-7-57" value="get&amp;nbsp;&lt;b style=&quot;border-color: var(--border-color);&quot;&gt;benchmark&lt;/b&gt;" style="ellipse;whiteSpace=wrap;html=1;" vertex="1" parent="1">
          <mxGeometry x="640" y="230" width="130" height="80" as="geometry" />
        </mxCell>
        <mxCell id="hTVvLyft6rMGYpKhxL-7-58" value="" style="rounded=1;whiteSpace=wrap;html=1;fillColor=none;" vertex="1" parent="1">
          <mxGeometry x="40" y="470" width="860" height="340" as="geometry" />
        </mxCell>
        <mxCell id="hTVvLyft6rMGYpKhxL-7-62" value="" style="rounded=1;whiteSpace=wrap;html=1;fillColor=none;" vertex="1" parent="1">
          <mxGeometry x="61.75" y="510" width="806.5" height="100" as="geometry" />
        </mxCell>
        <mxCell id="hTVvLyft6rMGYpKhxL-7-63" value="" style="rounded=1;whiteSpace=wrap;html=1;fillColor=none;" vertex="1" parent="1">
          <mxGeometry x="60" y="680" width="810" height="110" as="geometry" />
        </mxCell>
        <mxCell id="hTVvLyft6rMGYpKhxL-7-64" value="compressed data" style="ellipse;whiteSpace=wrap;html=1;" vertex="1" parent="1">
          <mxGeometry x="755" y="710" width="100" height="60" as="geometry" />
        </mxCell>
        <mxCell id="hTVvLyft6rMGYpKhxL-7-65" value="config&amp;nbsp;" style="whiteSpace=wrap;html=1;aspect=fixed;" vertex="1" parent="1">
          <mxGeometry x="404" y="630" width="40" height="40" as="geometry" />
        </mxCell>
        <mxCell id="hTVvLyft6rMGYpKhxL-7-66" value="" style="endArrow=none;html=1;rounded=0;exitX=0;exitY=0;exitDx=0;exitDy=0;entryX=0.333;entryY=0.7;entryDx=0;entryDy=0;entryPerimeter=0;" edge="1" parent="1" source="hTVvLyft6rMGYpKhxL-7-65" target="hTVvLyft6rMGYpKhxL-7-62">
          <mxGeometry width="50" height="50" relative="1" as="geometry">
            <mxPoint x="480" y="540" as="sourcePoint" />
            <mxPoint x="530" y="490" as="targetPoint" />
          </mxGeometry>
        </mxCell>
        <mxCell id="hTVvLyft6rMGYpKhxL-7-68" value="" style="endArrow=none;html=1;rounded=0;exitX=0.75;exitY=0;exitDx=0;exitDy=0;entryX=0.581;entryY=0.7;entryDx=0;entryDy=0;entryPerimeter=0;" edge="1" parent="1" source="hTVvLyft6rMGYpKhxL-7-65" target="hTVvLyft6rMGYpKhxL-7-62">
          <mxGeometry width="50" height="50" relative="1" as="geometry">
            <mxPoint x="420" y="680" as="sourcePoint" />
            <mxPoint x="470" y="630" as="targetPoint" />
          </mxGeometry>
        </mxCell>
      </root>
    </mxGraphModel>
  </diagram>
</mxfile>
